# xmcd
#
# Track frame offsets:
#	182
#	20085
#	37590
#	55077
#
# Disc length: 912
#
# Revision: 1
# Processed by: cddbd v1.5.1PL0 Copyright (c) Steve Scherf et al.
# Submitted via: dBpowerAMP V4.0
# Normalized: r0:TRMNUM
#
DISCID=25038e04
DTITLE=Gary Moore - Maxi CD
DYEAR=1992
DGENRE=Rock
TTITLE0=Seperate Ways
TTITLE1=Only Fool In Town
TTITLE2=You Don't Love Me (live)
TTITLE3=The Stumble (live)
EXTD=Gary
EXTT0=
EXTT1=
EXTT2=
EXTT3=
PLAYORDER=
